<svg xmlns="http://www.w3.org/2000/svg" width="93.683" height="52.4" viewBox="0 0 93.683 52.4">
  <path id="Path_98" data-name="Path 98" d="M-2231.076-882.961a5.1,5.1,0,0,0,3.612-1.491,5.12,5.12,0,0,0,.017-7.24c-8.387-8.426-29.852-29.433-38.511-37.9,8.538-8.555,29.726-29.774,38.337-38.3a5.12,5.12,0,0,0,.037-7.24,5.119,5.119,0,0,0-7.24-.037c-10.919,10.806-42.038,42-42.038,42a5.118,5.118,0,0,0-1.495,3.649,5.119,5.119,0,0,0,1.543,3.629c.315.307,31.592,30.845,42.109,41.411A5.1,5.1,0,0,0-2231.076-882.961Z" transform="translate(-882.961 2278.356) rotate(90)" fill="#ea4548"/>
</svg>
