<svg xmlns="http://www.w3.org/2000/svg" width="70.357" height="69.018" viewBox="0 0 70.357 69.018">
  <g id="close_btn" transform="translate(1.5 1.501)">
    <g id="Group_10" data-name="Group 10" transform="translate(0 -0.001)">
      <g id="Group_9" data-name="Group 9" transform="translate(0 0)">
        <g id="Group_8" data-name="Group 8" transform="translate(1.633 0.116)">
          <path id="Path_94" data-name="Path 94" d="M1.084,5.9,60.009,64.98a3.406,3.406,0,1,0,4.81-4.823L5.894,1.075A3.406,3.406,0,0,0,1.084,5.9" transform="translate(-0.089 -0.076)" fill="#ea4548" fill-rule="evenodd"/>
          <path id="Path_94_-_Outline" data-name="Path 94 - Outline" d="M62.414,67.478h0a4.864,4.864,0,0,1-3.467-1.439L.022,6.957h0a4.923,4.923,0,0,1,0-6.942,4.9,4.9,0,0,1,6.934,0L65.881,59.1a4.923,4.923,0,0,1,0,6.942A4.864,4.864,0,0,1,62.414,67.478ZM2.146,4.838,61.071,63.92a1.9,1.9,0,0,0,2.686,0,1.918,1.918,0,0,0,0-2.7L4.832,2.134a1.9,1.9,0,0,0-2.686,0,1.918,1.918,0,0,0,0,2.7Z" transform="translate(-0.089 -0.076)" fill="#ea4548"/>
        </g>
        <path id="Path_95" data-name="Path 95" d="M1,65.016a3.418,3.418,0,0,0,4.832,0L65.017,5.831A3.416,3.416,0,1,0,60.186,1L1,60.185a3.418,3.418,0,0,0,0,4.832" transform="translate(0 0.001)" fill="#ea4548" fill-rule="evenodd"/>
        <path id="Path_95_-_Outline" data-name="Path 95 - Outline" d="M3.416,67.517A4.884,4.884,0,0,1-.06,66.077h0a4.918,4.918,0,0,1,0-6.953L59.125-.061a4.916,4.916,0,0,1,8.392,3.476,4.884,4.884,0,0,1-1.44,3.477L6.892,66.077A4.884,4.884,0,0,1,3.416,67.517ZM2.061,63.956a1.918,1.918,0,0,0,2.71,0L63.956,4.77a1.916,1.916,0,0,0-2.71-2.71L2.061,61.246a1.918,1.918,0,0,0,0,2.71Z" transform="translate(0 0.001)" fill="#ea4548"/>
      </g>
    </g>
  </g>
</svg>
