<?xml version="1.0" encoding="UTF-8"?>
<svg version="1.1" viewBox="0 0 34 33" xmlns="http://www.w3.org/2000/svg" xmlns:xlink="http://www.w3.org/1999/xlink">
<title>close_btn</title>
<desc>Created with Sketch.</desc>
<defs>
<polygon id="a" points="0.088522 44 43.895 44 43.895 0.076371 0.088522 0.076371"/>
</defs>
<g fill="none" fill-rule="evenodd">
<g transform="translate(-1302 -72)">
<g transform="translate(1302 72)">
<g transform="translate(1)">
<mask id="b" fill="white">
<use xlink:href="#a"/>
</mask>
<path d="m0.75213 3.9563l39.273 39.378c0.88493 0.88741 2.3212 0.88741 3.206 2.353e-4 0.88493-0.88729 0.88493-2.3274 0-3.2147l-39.273-39.378c-0.88481-0.88718-2.3212-0.88718-3.206 0-0.88481 0.88718-0.88481 2.3274 0 3.2146" fill="#fff" mask="url(#b)"/>
</g>
<path d="m0.66654 43.333c0.88872 0.88872 2.3315 0.88872 3.2202 0l39.447-39.447c0.88884-0.88884 0.88884-2.3315 0-3.2203-0.88872-0.88872-2.3313-0.88872-3.2202 2.357e-4l-39.447 39.447c-0.88872 0.88872-0.88872 2.3315 0 3.2202" fill="#fff"/>
</g>
</g>
</g>
</svg>
