<svg xmlns="http://www.w3.org/2000/svg" width="31.786" height="31.784" viewBox="0 0 31.786 31.784"><g transform="translate(-4.5 -4.5)"><path d="M-1443.81-6129.911h-13.245a9.209,9.209,0,0,1-6.547-2.721,9.205,9.205,0,0,1-2.723-6.547v-13.244a9.207,9.207,0,0,1,2.723-6.549,9.2,9.2,0,0,1,6.547-2.723h13.245a9.2,9.2,0,0,1,6.547,2.723,9.207,9.207,0,0,1,2.723,6.549v13.244a9.205,9.205,0,0,1-2.723,6.547A9.209,9.209,0,0,1-1443.81-6129.911Zm-6.929-22.285a6.508,6.508,0,0,0-6.5,6.5,6.507,6.507,0,0,0,6.5,6.5,6.508,6.508,0,0,0,6.5-6.5A6.508,6.508,0,0,0-1450.74-6152.2Zm8.917-4.2a1.989,1.989,0,0,0-1.987,1.986,1.99,1.99,0,0,0,1.987,1.988,1.989,1.989,0,0,0,1.985-1.988A1.988,1.988,0,0,0-1441.823-6156.4Z" transform="translate(1470.825 6166.195)" fill="#ea4548"/></g></svg>