<svg xmlns="http://www.w3.org/2000/svg" width="75.03" height="62.02" viewBox="0 0 75.03 62.02">
  <g id="Group_18" data-name="Group 18" transform="translate(2804.5 1124.5)">
    <path id="Path_100" data-name="Path 100" d="M65.03,5H0A5,5,0,0,1-5,0,5,5,0,0,1,0-5H65.03a5,5,0,0,1,5,5A5,5,0,0,1,65.03,5Z" transform="translate(-2799.5 -1119.5)" fill="#ea4548"/>
    <path id="Line_4" data-name="Line 4" d="M65.03,5H0A5,5,0,0,1-5,0,5,5,0,0,1,0-5H65.03a5,5,0,0,1,5,5A5,5,0,0,1,65.03,5Z" transform="translate(-2799.5 -1093.49)" fill="#ea4548"/>
    <path id="Line_5" data-name="Line 5" d="M65.03,5H0A5,5,0,0,1-5,0,5,5,0,0,1,0-5H65.03a5,5,0,0,1,5,5A5,5,0,0,1,65.03,5Z" transform="translate(-2799.5 -1067.48)" fill="#ea4548"/>
  </g>
</svg>
