<?xml version="1.0" encoding="utf-8"?>
<!-- Generator: Adobe Illustrator 16.0.0, SVG Export Plug-In . SVG Version: 6.00 Build 0)  -->
<!DOCTYPE svg PUBLIC "-//W3C//DTD SVG 1.1//EN" "http://www.w3.org/Graphics/SVG/1.1/DTD/svg11.dtd">
<svg version="1.1" id="Layer_1" xmlns="http://www.w3.org/2000/svg" xmlns:xlink="http://www.w3.org/1999/xlink" x="0px" y="0px"
	 width="512px" height="512px" viewBox="776 -7 512 512" enable-background="new 776 -7 512 512" xml:space="preserve">
<g>
	<g>
		<path fill="#EA4549" d="M400.64,393.387c-13.653,9.387-25.601,14.508-44.373,17.92c-11.093,2.561-20.48,2.561-29.867,1.707
			c-9.387-0.853-18.772-4.267-26.453-9.387c-5.973-4.268-9.387-11.093-11.093-21.333c-1.706-10.239-2.56-20.479-2.56-29.867
			c0-3.413,0-82.772,0-130.56h110.933V128H286.293V0H198.4l-0.853,11.093c0,2.56,0,5.12-0.854,7.68
			c-3.413,17.92-6.826,32.427-12.8,44.373c-12.8,28.16-34.133,49.493-62.293,62.293c-4.267,2.56-7.68,3.413-11.947,5.12
			l-11.093,4.267v87.04h51.2v34.987c0,43.52,0,86.187,0,129.707c0,13.652,0.853,25.6,3.413,35.84
			c2.56,14.507,10.24,29.013,23.893,43.52c13.653,15.36,32.428,27.307,52.054,34.987c11.946,4.267,23.893,7.68,37.547,9.387
			c7.68,0.853,15.359,1.707,23.04,1.707c0.853,0,10.239,0,15.359,0h7.68c22.188-0.853,45.228-5.973,71.681-16.213
			c3.413-1.707,6.827-2.561,9.387-3.413c4.267-1.707,9.387-3.413,15.36-5.973l4.267-2.561v-98.986L400.64,393.387z M396.372,473.6
			c-2.56,0.854-5.973,1.707-8.532,2.561c-2.561,0.853-5.974,1.707-10.24,3.413c-24.747,10.239-45.228,14.507-66.561,15.359h-5.973
			c-4.267,0-13.652,0-14.507,0c-6.827,0-14.507-0.853-21.333-1.707c-12.8-1.707-23.893-4.267-34.133-8.532
			c-17.92-5.974-34.133-17.067-46.08-29.867c-11.093-12.8-17.92-23.894-19.627-34.987c-1.707-9.387-2.56-20.479-2.56-33.28
			c0-43.52,0-86.187,0-129.707V204.8h-51.2v-58.88c4.267-0.853,8.533-2.56,12.8-5.12c31.573-14.507,55.467-38.4,70.827-70.827
			c5.973-13.653,10.24-29.013,13.653-48.64c0-0.853,0.853-2.56,0.853-4.267h55.467v128h110.08V204.8H268.373v8.533
			c0,5.973,0,135.681,0,139.947c0,9.387,0.853,21.333,2.56,32.427c2.561,14.507,8.533,25.6,18.773,32.427
			c10.239,6.827,21.332,10.24,34.133,11.947c11.093,1.707,23.04,0.853,34.986-1.707c13.653-2.56,24.747-5.12,37.547-11.946V473.6z"
			/>
	</g>
</g>
<path fill="#EA4549" d="M1180.164,444.476c-6.283-19.838-12.274-39.768-18.503-59.626c-5.103-16.271-15.604-22.03-31.91-16.878
	c-8.602,2.714-17.287,4.681-26.194,5.273c-14.743,0.979-25.231-8.33-25.329-22.957c-0.258-39.123-0.031-78.25-0.153-117.373
	c-0.016-4.489,0.985-6.613,6.031-6.434c21.508,0.763,43.065-1.156,64.557,1.109c10.607,1.115,17.982-4.353,18.106-14.8
	c0.346-29.171,0.754-58.374-0.199-87.521c-0.6-18.395-11.339-27.139-29.714-27.191c-8.621-0.025-50.289,4.448-56.59-1.803
	c-6.764-6.711-1.271-63.942-3.13-80.142c-1.95-17.004-8.035-22.719-24.894-22.727c-15.562-0.007-39.435-0.007-61.669-0.001
	c-19.323,0.006-27.47,6.963-28.984,26.039c-1.471,18.467-8.12,34.722-19.332,49.142c-17.069,21.958-37.225,40.428-62.446,52.748
	c-12.884,6.294-19.522,15.64-18.915,30.654c0.773,19.198,0.121,38.455,0.215,57.684c0.069,13.779,6.064,19.107,19.841,18.099
	c6.93-0.507,13.905-0.536,20.801-1.298c6.235-0.689,7.896,1.696,7.812,7.75c-0.315,23.204-0.129,46.416-0.129,69.628
	c0,18.897,0.115,37.796-0.019,56.696c-0.433,61.048,32.046,107.298,89.29,128.497c34.659,12.835,70.054,16.737,106.474,11.611
	c22.817-3.21,44.527-9.948,63.78-23.099C1182.367,468.396,1185.022,459.811,1180.164,444.476z M1152.288,459.618
	c-24.633,14.994-51.991,19.2-80.058,19.054c-34.443-0.179-66.743-8.384-95.3-28.795c-29.2-20.872-42.937-49.617-43.171-84.942
	c-0.315-47.736-0.04-95.479-0.04-143.217c0-13.912-4.956-18.937-19.101-19.193c-7.955-0.145-15.926-0.272-23.863,0.098
	c-4.503,0.208-5.667-1.449-5.618-5.66c0.185-15.248,0.24-30.501,0-45.746c-0.077-4.939,2.62-6.825,6.423-8.771
	c27.607-14.15,50.328-34.165,68.972-58.783c13.398-17.697,23.011-37.149,23.739-59.879c0.173-5.508,2.491-6.49,7.306-6.434
	c8.312,0.097,16.627,0.193,24.942,0.216c9.59,0.029,19.18-0.034,28.761-0.296c7.464-0.204,8.969,3.062,8.848,9.47
	c-0.257,13.586-0.078,27.183-0.072,40.776c0.007,13.923,0.089,27.848-0.021,41.771c-0.075,9.057,3.963,13.222,13.267,13.105
	c21.542-0.27,43.1,0.143,64.644-0.216c7.85-0.129,10.812,3.323,10.809,10.582c-0.01,21.219-0.191,42.44,0.167,63.651
	c0.103,6.004-2.806,6.162-7.286,6.136c-22.211-0.132-44.423-0.084-66.635-0.052c-12.633,0.019-14.91,2.26-14.925,15.179
	c-0.053,43.76-0.073,87.524,0.002,131.284c0.054,30.572,23.535,51.526,53.931,48.094c8.198-0.925,16.479-1.825,24.264-4.867
	c4.24-1.657,6.315-0.932,7.789,3.93c5.457,18.016,11.226,35.945,17.391,53.73C1159.494,455.737,1155.99,457.364,1152.288,459.618z"
	/>
</svg>
