<svg xmlns="http://www.w3.org/2000/svg" width="512" height="512" viewBox="776 -7 512 512" fill="#ea4549"><path d="M400.64 393.387c-13.653 9.387-25.6 14.508-44.373 17.92-11.093 2.56-20.48 2.56-29.867 1.707s-18.772-4.267-26.453-9.387c-5.973-4.268-9.387-11.093-11.093-21.333s-2.56-20.48-2.56-29.867v-130.56h110.933V128H286.293V0H198.4l-.853 11.093c0 2.56 0 5.12-.854 7.68-3.413 17.92-6.826 32.427-12.8 44.373-12.8 28.16-34.133 49.493-62.293 62.293-4.267 2.56-7.68 3.413-11.947 5.12l-11.093 4.267v87.04h51.2V386.56c0 13.652.853 25.6 3.413 35.84 2.56 14.507 10.24 29.013 23.893 43.52 13.653 15.36 32.428 27.307 52.054 34.987 11.946 4.267 23.893 7.68 37.547 9.387 7.68.853 15.36 1.707 23.04 1.707h23.04c22.188-.853 45.228-5.973 71.68-16.213 3.413-1.707 6.827-2.56 9.387-3.413 4.267-1.707 9.387-3.413 15.36-5.973l4.267-2.56v-98.986l-12.8 8.532zm-4.268 80.213c-2.56.854-5.973 1.707-8.532 2.56s-5.974 1.707-10.24 3.413c-24.747 10.24-45.228 14.507-66.56 15.36h-20.48c-6.827 0-14.507-.853-21.333-1.707-12.8-1.707-23.893-4.267-34.133-8.532-17.92-5.974-34.133-17.067-46.08-29.867-11.093-12.8-17.92-23.894-19.627-34.987-1.707-9.387-2.56-20.48-2.56-33.28V204.8h-51.2v-58.88c4.267-.853 8.533-2.56 12.8-5.12 31.573-14.507 55.467-38.4 70.827-70.827 5.973-13.653 10.24-29.013 13.653-48.64 0-.853.853-2.56.853-4.267h55.467v128h110.08V204.8H268.373v148.48c0 9.387.853 21.333 2.56 32.427 2.56 14.507 8.533 25.6 18.773 32.427s21.332 10.24 34.133 11.947c11.093 1.707 23.04.853 34.986-1.707 13.653-2.56 24.747-5.12 37.547-11.946V473.6zm783.792-29.124l-18.503-59.626c-5.103-16.27-15.604-22.03-31.9-16.878-8.602 2.714-17.287 4.68-26.194 5.273-14.743.98-25.23-8.33-25.33-22.957l-.153-117.373c-.016-4.5.985-6.613 6.03-6.434 21.508.763 43.065-1.156 64.557 1.1 10.607 1.115 17.982-4.353 18.106-14.8l-.2-87.52c-.6-18.395-11.34-27.14-29.714-27.2-8.62-.025-50.3 4.448-56.6-1.803-6.764-6.7-1.27-63.942-3.13-80.142-1.95-17.004-8.035-22.72-24.894-22.727l-61.67-.001c-19.323.006-27.47 6.963-28.984 26.04-1.47 18.467-8.12 34.722-19.332 49.142-17.07 21.958-37.225 40.428-62.446 52.748-12.884 6.294-19.522 15.64-18.915 30.654.773 19.198.12 38.455.215 57.684.07 13.78 6.064 19.107 19.84 18.1 6.93-.507 13.905-.536 20.8-1.298 6.235-.7 7.896 1.696 7.812 7.75l-.13 69.628-.02 56.696c-.433 61.048 32.046 107.298 89.3 128.497 34.66 12.835 70.054 16.737 106.474 11.6 22.817-3.2 44.527-9.948 63.78-23.1 13.406-9.16 16.06-17.745 11.203-33.08zm-27.876 15.142c-24.633 14.994-52 19.2-80.058 19.054-34.443-.18-66.743-8.384-95.3-28.795-29.2-20.872-42.937-49.617-43.17-84.942l-.04-143.217c0-13.912-4.956-18.937-19.1-19.193-7.955-.145-15.926-.272-23.863.098-4.503.208-5.667-1.45-5.618-5.66v-45.746c-.077-4.94 2.62-6.825 6.423-8.77 27.607-14.15 50.328-34.165 68.972-58.783 13.398-17.697 23-37.15 23.74-59.88.173-5.508 2.5-6.5 7.306-6.434l24.942.216 28.76-.296c7.464-.204 8.97 3.062 8.848 9.47-.257 13.586-.078 27.183-.072 40.776l-.02 41.77c-.075 9.057 3.963 13.222 13.267 13.105l64.644-.216c7.85-.13 10.812 3.323 10.8 10.582l.167 63.65c.103 6.004-2.806 6.162-7.286 6.136l-66.635-.052c-12.633.02-14.9 2.26-14.925 15.18l.002 131.284c.054 30.572 23.535 51.526 53.93 48.094 8.198-.925 16.48-1.825 24.264-4.867 4.24-1.657 6.315-.932 7.8 3.93 5.457 18.016 11.226 35.945 17.4 53.73 2.04 5.894-1.463 7.52-5.165 9.775z"/></svg>
