<svg xmlns="http://www.w3.org/2000/svg" width="512" height="512"><path fill="#ea4549" d="M194.817 468.71c-85.453 0-152.992-14.93-185.305-40.953l-.63-.508-.57-.57C.637 419-1.88 408.926 1.418 399.043l.3-.82c4-10.004 13.8-16.738 24.422-16.8 21.86-.38 40.984-2.984 58.34-8.043-27.684-12.875-46.914-35.168-58.355-67.434-3.848-10.062-.527-21.22 8.34-27.87 2.188-1.645 4.66-2.887 7.277-3.72-15.383-17.757-26.747-37.964-33.1-59.335l-.2-.664-.137-.68c-2.16-10.81 2.672-21.922 11.527-26.707 3.715-2.133 7.75-3.238 11.8-3.332-4.367-9.406-7.543-19.062-9.426-28.777-5.227-26.922-.914-53.9 12.812-80.215l3.176-6.352a17.76 17.76 0 0 1 28.359-4.605l5.785 5.793c45.703 47.914 86.64 70.648 157.418 86.203 3.16-27.168 14.906-52.422 33.855-72.297 22.55-23.648 52.664-36.918 84.793-37.37h.21c23.44 0 52.52 13.383 70.105 22.82 15.086-4.938 33.262-12.582 52.12-20.664 8.824-4.14 19.703-2.246 26.64 4.69 6.8 6.8 8.688 16.39 5.078 25.71a126.51 126.51 0 0 1-4.656 11.227c2.582 1.184 4.945 2.79 6.94 4.785 6.035 6.035 8.55 15.48 6.406 24.066l-.23.816c-7.227 23.29-21.11 42.258-39.47 54.164-3.064 163.286-126.025 295.08-276.728 295.08zM38.305 411.035c30.45 17.227 88.477 27.648 156.512 27.648 65.4 0 127.137-28.082 173.805-79.074 47.05-51.4 72.96-119.68 72.96-192.234v-.816c0-6.57 3.617-12.566 9.438-15.652 11.81-6.254 21.37-16.906 27.6-30.527-6.414 1.012-12.934-1.562-16.93-6.93a17.62 17.62 0 0 1-.129-20.957 97.38 97.38 0 0 0 6.691-10.59c-16.285 6.84-31.75 12.973-45.176 17.047-4.88 1.477-10.316.898-14.773-1.6-23.902-13.316-46.164-21.277-59.586-21.316-49.527.758-89.797 43.176-89.797 94.605a17.66 17.66 0 0 1-6.465 13.68 17.64 17.64 0 0 1-14.672 3.695c-81.61-16.078-129.97-40.188-180.258-90.723-7.207 17.27-9.176 34.664-5.844 51.84 3.38 17.398 12.367 34.832 25.996 50.414 5.18 5.914 5.867 14.375 1.71 21.05-4.14 6.652-12.012 9.762-19.578 7.734-5.914-1.586-11.352-3.668-16.508-6.344 10.504 22.816 28.57 43.918 51.28 59.48a17.73 17.73 0 0 1 6.691 20.453c-2.645 7.543-10.03 12.398-18.016 11.805-8.7-.645-16.406-2.297-23.5-5.082 12.734 25.934 33.082 40.203 64.43 45.656a17.72 17.72 0 0 1 14.465 14.668c1.19 7.473-2.508 14.88-9.2 18.43-26.718 14.164-55.92 21.766-91.14 23.63z"/></svg>
