<svg xmlns="http://www.w3.org/2000/svg" width="33.239" height="27.048" viewBox="0 0 33.239 27.048"><path d="M34.653,7.7a13.787,13.787,0,0,1-3.916,1.078,6.843,6.843,0,0,0,3-3.775A13.55,13.55,0,0,1,29.4,6.662a6.817,6.817,0,0,0-11.8,4.663,6.676,6.676,0,0,0,.176,1.557A19.326,19.326,0,0,1,3.724,5.747a6.833,6.833,0,0,0,2.12,9.115,6.661,6.661,0,0,1-3.1-.852v.085a6.825,6.825,0,0,0,5.473,6.692,6.865,6.865,0,0,1-1.8.239A6.433,6.433,0,0,1,5.139,20.9a6.83,6.83,0,0,0,6.375,4.74A13.673,13.673,0,0,1,3.04,28.561a13.823,13.823,0,0,1-1.627-.1,19.062,19.062,0,0,0,10.439,3.085c12.559,0,19.42-10.4,19.42-19.427,0-.3-.007-.592-.021-.88A13.882,13.882,0,0,0,34.653,7.7Z" transform="translate(-1.413 -4.5)" fill="#ea4548"/></svg>