<?xml version="1.0" encoding="utf-8"?>
<!-- Generator: Adobe Illustrator 16.0.0, SVG Export Plug-In . SVG Version: 6.00 Build 0)  -->
<!DOCTYPE svg PUBLIC "-//W3C//DTD SVG 1.1//EN" "http://www.w3.org/Graphics/SVG/1.1/DTD/svg11.dtd">
<svg version="1.1" id="Layer_1" xmlns="http://www.w3.org/2000/svg" xmlns:xlink="http://www.w3.org/1999/xlink" x="0px" y="0px"
	 width="512px" height="512px" viewBox="0 0 512 512" enable-background="new 0 0 512 512" xml:space="preserve">
<path fill="#EA4549" d="M194.817,468.711c-85.453,0-152.992-14.93-185.305-40.953l-0.629-0.508l-0.57-0.57
	C0.637,419-1.879,408.926,1.418,399.043l0.301-0.82c4-10.004,13.801-16.738,24.422-16.801c21.859-0.379,40.984-2.984,58.34-8.043
	c-27.684-12.875-46.914-35.168-58.355-67.434c-3.848-10.062-0.527-21.219,8.34-27.871c2.188-1.645,4.66-2.887,7.277-3.719
	C26.36,256.598,14.996,236.391,8.633,215.02l-0.199-0.664l-0.137-0.68c-2.16-10.809,2.672-21.922,11.527-26.707
	c3.715-2.133,7.75-3.238,11.801-3.332c-4.367-9.406-7.543-19.062-9.426-28.777c-5.227-26.922-0.914-53.91,12.812-80.215l3.176-6.352
	c2.543-5.082,7.402-8.652,13.004-9.562c5.602-0.906,11.344,0.945,15.355,4.957l5.785,5.793
	c45.703,47.914,86.641,70.648,157.418,86.203c3.16-27.168,14.906-52.422,33.855-72.297c22.551-23.648,52.664-36.918,84.793-37.371
	h0.211c23.441,0,52.52,13.383,70.105,22.82c15.086-4.938,33.262-12.582,52.121-20.664c8.824-4.141,19.703-2.246,26.641,4.691
	c6.801,6.801,8.688,16.391,5.078,25.711c-1.371,3.816-2.926,7.562-4.656,11.227c2.582,1.184,4.945,2.789,6.941,4.785
	c6.035,6.035,8.551,15.48,6.406,24.066l-0.23,0.816c-7.227,23.289-21.109,42.258-39.469,54.164
	C468.481,336.918,345.52,468.711,194.817,468.711z M38.305,411.035c30.449,17.227,88.477,27.648,156.512,27.648
	c65.41,0,127.137-28.082,173.805-79.074c47.051-51.41,72.961-119.68,72.961-192.234v-0.816c0-6.57,3.617-12.566,9.438-15.652
	c11.809-6.254,21.371-16.906,27.59-30.527c-6.414,1.012-12.934-1.562-16.93-6.93c-4.645-6.238-4.695-14.664-0.129-20.957
	c2.465-3.398,4.699-6.934,6.691-10.59c-16.285,6.84-31.75,12.973-45.176,17.047c-4.879,1.477-10.316,0.898-14.773-1.59
	c-23.902-13.316-46.164-21.277-59.586-21.316c-49.527,0.758-89.797,43.176-89.797,94.605c0,5.316-2.359,10.301-6.465,13.68
	c-4.109,3.375-9.453,4.727-14.672,3.695c-81.609-16.078-129.969-40.188-180.258-90.723c-7.207,17.27-9.176,34.664-5.844,51.84
	c3.379,17.398,12.367,34.832,25.996,50.414c5.18,5.914,5.867,14.375,1.711,21.051c-4.141,6.652-12.012,9.762-19.578,7.734
	c-5.914-1.586-11.352-3.668-16.508-6.344c10.504,22.816,28.57,43.918,51.281,59.48c6.582,4.512,9.332,12.922,6.691,20.453
	c-2.645,7.543-10.031,12.398-18.016,11.805c-8.699-0.645-16.406-2.297-23.5-5.082c12.734,25.934,33.082,40.203,64.43,45.656
	c7.465,1.301,13.277,7.195,14.465,14.668c1.191,7.473-2.508,14.879-9.199,18.43C102.727,401.57,73.524,409.172,38.305,411.035z"/>
</svg>
