<svg xmlns="http://www.w3.org/2000/svg" width="38.4" height="27" viewBox="0 0 38.4 27"><path d="M19.2-5270.194c-.12,0-12.041-.009-15-.808A4.721,4.721,0,0,1,.8-5274.365c-.794-2.979-.8-9.239-.8-9.3s.009-6.324.8-9.3a4.821,4.821,0,0,1,3.394-3.417c2.961-.8,14.882-.809,15-.809s12.043.009,15,.809a4.821,4.821,0,0,1,3.394,3.417c.794,2.979.8,9.24.8,9.3s-.009,6.322-.8,9.3A4.721,4.721,0,0,1,34.2-5271C31.242-5270.2,19.32-5270.194,19.2-5270.194Zm-3.8-19.4a1,1,0,0,0-.5.135,1,1,0,0,0-.5.865v9.809a1,1,0,0,0,.5.865,1,1,0,0,0,.5.136,1,1,0,0,0,.495-.13l8.625-4.905a1,1,0,0,0,.505-.87,1,1,0,0,0-.505-.87l-8.625-4.905A1,1,0,0,0,15.4-5289.6Z" transform="translate(0 5297.195)" fill="#ea4548"/></svg>