<svg xmlns="http://www.w3.org/2000/svg" width="512" height="512" fill="#ea4549"><path d="M334.8 234.993l-113.113-61.9a20.59 20.59 0 0 0-30.75 18.227v122.72c0 7.38 3.78 14.047 10.117 17.832 3.3 1.977 6.977 2.97 10.652 2.97 3.367 0 6.742-.832 9.848-2.504L334.68 271.52c6.715-3.613 10.906-10.594 10.938-18.223s-4.114-14.64-10.8-18.305zM220.95 298.6v-91.72l84.54 46.258-84.54 45.46zm287.285-143.072l-.023-.234c-.434-4.12-4.75-40.777-22.57-59.422-20.598-21.93-43.95-24.594-55.18-25.87l-2.543-.305-.895-.094c-67.688-4.922-169.9-5.594-170.934-5.598L256 64l-.1.004c-1.023.004-103.246.676-171.543 5.598l-.902.094-2.398.3c-11.102 1.28-34.203 3.95-54.86 26.672-16.973 18.445-21.88 54.316-22.384 58.347l-.06.523C3.614 157.243 0 198.067 0 239.052v38.312c0 40.984 3.613 81.8 3.766 83.527l.027.258c.434 4.055 4.746 40.04 22.484 58.7 19.367 21.195 43.855 24 57.027 25.508 2.082.238 3.875.44 5.098.656l1.184.164c39.082 3.72 161.617 5.55 166.812 5.625l.156.004.156-.004c1.023-.004 103.242-.676 170.93-5.598l.895-.094a105.46 105.46 0 0 1 2.87-.324c11.04-1.172 34.016-3.605 54.387-26.02 16.973-18.45 21.883-54.32 22.383-58.348l.06-.523c.152-1.72 3.77-42.54 3.77-83.523V239.05c-.005-40.984-3.618-81.804-3.77-83.523zm-26.24 121.836c0 37.934-3.312 77-3.625 80.586-1.273 9.88-6.45 32.574-14.72 41.562-12.75 14.027-25.848 15.418-35.4 16.43l-3.195.36c-65.47 4.734-163.832 5.46-168.363 5.488-5.082-.074-125.824-1.922-163.715-5.44-1.94-.316-4.04-.56-6.25-.8-11.215-1.285-26.566-3.043-38.37-16.027l-.277-.297c-8.125-8.465-13.152-29.688-14.43-41.148-.238-2.7-3.637-42.238-3.637-80.703v-38.312c0-37.9 3.305-76.914 3.625-80.574 1.52-11.637 6.793-32.957 14.72-41.574 13.14-14.453 26.996-16.055 36.16-17.113l2.445-.293c66.412-4.76 165.482-5.466 169.037-5.493 3.555.023 102.6.734 168.422 5.492l2.64.312c9.426 1.074 23.672 2.7 36.746 16.645l.12.13c8.125 8.465 13.152 30.06 14.43 41.75.227 2.56 3.637 42.172 3.637 80.72v38.3z"/></svg>
