<?xml version="1.0" standalone="no"?>
<!DOCTYPE svg PUBLIC "-//W3C//DTD SVG 20010904//EN"
 "http://www.w3.org/TR/2001/REC-SVG-20010904/DTD/svg10.dtd">
<svg version="1.0" xmlns="http://www.w3.org/2000/svg"
 width="350.000000pt" height="350.000000pt" viewBox="0 0 350.000000 350.000000"
 preserveAspectRatio="xMidYMid meet">
<metadata>
Created by potrace 1.14, written by Peter Selinger 2001-2017
</metadata>
<g transform="translate(0.000000,350.000000) scale(0.100000,-0.100000)"
fill="#000000" stroke="none">
<path d="M1608 3495 c-1 -1 -30 -5 -63 -8 -280 -28 -596 -153 -840 -334 -113
-84 -292 -264 -367 -369 -165 -232 -275 -494 -313 -749 -3 -16 -9 -57 -14 -90
-10 -64 -7 -376 4 -435 41 -225 89 -378 167 -535 69 -138 168 -287 188 -282 8
2 129 84 268 182 l253 178 -29 31 c-73 78 -103 169 -98 294 7 143 21 175 71
156 15 -6 16 -14 10 -58 -13 -90 -13 -155 -1 -209 19 -81 88 -177 118 -164 7
3 177 118 378 256 382 262 422 289 690 475 91 63 193 134 227 158 35 24 63 46
63 49 0 5 -182 65 -225 73 -207 41 -478 112 -573 151 -245 99 -284 238 -116
408 153 153 413 250 654 242 159 -5 284 -67 335 -165 13 -26 13 -30 -1 -44
-24 -24 -37 -20 -77 29 -21 25 -57 55 -80 67 -226 116 -692 -21 -833 -244 -41
-64 -36 -105 18 -155 40 -38 203 -107 300 -127 13 -3 70 -17 128 -31 58 -14
119 -27 135 -30 17 -4 66 -15 110 -26 393 -98 660 -273 701 -459 41 -189 -121
-399 -437 -568 -142 -76 -358 -154 -545 -198 -98 -23 -104 -24 -154 -30 -25
-3 -74 -9 -110 -14 -36 -4 -113 -8 -172 -8 -96 1 -138 5 -233 22 -44 8 -146
44 -161 57 -8 6 -22 9 -31 7 -10 -3 -117 -74 -238 -158 -121 -85 -239 -167
-263 -183 -42 -29 -43 -29 -25 -51 95 -112 249 -246 378 -329 177 -113 423
-212 604 -242 19 -3 37 -7 40 -9 31 -19 404 -28 526 -13 170 21 386 88 550
170 340 169 598 422 774 757 55 105 124 276 135 332 2 13 11 50 19 83 32 124
42 219 42 395 0 166 -6 228 -34 365 -93 444 -378 858 -759 1103 -204 131 -457
228 -687 262 -71 11 -398 23 -407 15z"/>
<path d="M2377 1982 c-14 -10 -127 -89 -250 -177 -123 -88 -411 -290 -639
-450 -229 -159 -414 -293 -412 -297 8 -12 129 -47 199 -57 70 -9 273 -7 336 3
19 3 48 8 64 11 263 42 577 160 773 292 163 110 264 245 264 353 0 114 -83
213 -263 313 -44 24 -48 24 -72 9z"/>
</g>
</svg>
