<?xml version="1.0" standalone="no"?>
<!DOCTYPE svg PUBLIC "-//W3C//DTD SVG 20010904//EN"
 "http://www.w3.org/TR/2001/REC-SVG-20010904/DTD/svg10.dtd">
<svg version="1.0" xmlns="http://www.w3.org/2000/svg"
 width="16.000000pt" height="16.000000pt" viewBox="0 0 16.000000 16.000000"
 preserveAspectRatio="xMidYMid meet">
<metadata>
Created by potrace 1.11, written by Peter Selinger 2001-2013
</metadata>
<g transform="translate(0.000000,16.000000) scale(0.006154,-0.006154)"
fill="#000000" stroke="none">
<path d="M1135 2569 c-112 -16 -140 -21 -203 -41 -37 -11 -71 -21 -77 -23 -69
-15 -304 -146 -363 -202 -10 -10 -47 -44 -81 -77 -187 -176 -318 -423 -365
-688 -19 -109 -15 -346 8 -449 30 -138 93 -299 163 -414 27 -44 111 -154 157
-204 51 -55 231 -199 283 -226 21 -11 40 -22 43 -25 3 -3 41 -22 85 -42 102
-46 115 -51 163 -62 9 -3 18 -5 20 -6 1 -2 5 -3 10 -4 30 -8 71 -17 92 -22
114 -24 364 -24 481 0 392 83 713 332 887 686 20 41 37 80 39 85 1 6 13 42 27
82 14 39 28 91 31 114 4 24 8 46 10 49 8 13 18 134 17 215 0 198 -34 354 -114
525 -22 47 -47 96 -56 110 -9 14 -17 27 -17 30 0 3 -9 18 -20 33 -168 234
-350 379 -610 482 -56 23 -197 58 -280 71 -55 8 -279 11 -330 3z m315 -62 c8
-2 38 -7 65 -12 28 -4 55 -10 60 -13 6 -4 17 -8 27 -9 9 -1 41 -12 72 -23 30
-12 58 -21 61 -21 10 1 142 -73 209 -117 86 -56 238 -204 298 -292 211 -303
273 -670 172 -1017 -13 -47 -31 -98 -39 -114 -9 -16 -13 -29 -10 -29 6 0 -24
-59 -35 -70 -3 -3 -16 -26 -28 -52 -13 -25 -33 -56 -43 -67 -11 -12 -17 -21
-13 -21 16 0 -150 -180 -217 -235 -85 -69 -245 -162 -334 -193 -40 -14 -69
-23 -72 -23 -2 0 -17 -5 -35 -10 -64 -19 -110 -28 -188 -36 -186 -19 -384 6
-543 68 -103 41 -267 133 -318 179 -49 44 -119 114 -119 119 0 3 23 22 52 41
28 19 56 40 62 45 6 6 58 41 114 79 l103 69 62 -21 c190 -67 501 -41 765 62
33 13 63 22 65 20 2 -3 10 2 17 11 7 8 19 15 26 15 7 0 40 14 71 31 259 140
373 301 327 459 -42 143 -302 297 -584 345 -94 16 -297 72 -315 87 -5 4 -15 8
-22 8 -23 0 -83 54 -83 74 0 26 79 103 137 133 102 54 186 77 283 76 97 0 142
-16 188 -67 39 -44 69 -46 104 -8 24 25 25 29 14 57 -15 35 -74 95 -93 95 -7
0 -13 4 -13 9 0 5 -15 12 -32 16 -18 4 -40 10 -48 12 -24 8 -171 8 -215 1
-122 -21 -258 -86 -342 -165 -125 -117 -128 -226 -8 -309 39 -27 174 -78 250
-95 33 -7 62 -15 65 -18 3 -3 16 -7 30 -8 51 -3 150 -27 150 -35 0 -5 4 -7 8
-4 5 3 28 -1 52 -8 l43 -13 -144 -100 c-79 -55 -173 -119 -209 -143 -36 -23
-75 -52 -87 -63 -13 -11 -23 -16 -23 -11 0 5 -4 4 -8 -2 -10 -14 -271 -194
-282 -194 -4 0 -10 -4 -12 -8 -3 -9 -123 -92 -132 -92 -16 0 -46 48 -52 84 -9
48 -9 63 0 132 6 42 4 53 -12 67 -21 19 -51 18 -76 -2 -21 -18 -42 -178 -27
-206 3 -5 6 -12 7 -15 1 -3 5 -20 9 -37 4 -18 12 -33 17 -33 5 0 6 -4 3 -10
-3 -5 -2 -10 2 -10 5 0 14 -9 20 -19 13 -20 11 -22 -117 -111 -8 -6 -53 -37
-100 -70 l-85 -60 -22 28 c-23 28 -119 213 -139 267 -30 84 -38 114 -58 233
-13 76 -14 286 -2 357 31 175 96 344 191 490 67 103 200 238 307 312 40 28
116 71 168 97 102 49 165 70 269 92 14 3 28 7 32 9 3 3 37 7 75 10 38 4 70 7
71 9 4 3 195 -3 213 -7z m400 -1091 c143 -97 154 -192 35 -307 -89 -86 -246
-173 -405 -224 -47 -15 -92 -28 -100 -30 -8 -2 -16 -4 -17 -4 -101 -31 -367
-48 -451 -29 -37 8 -40 11 -28 24 8 8 17 14 21 14 3 0 30 18 59 40 29 22 58
40 64 40 7 0 12 3 12 8 0 4 21 20 48 37 26 16 49 32 52 35 3 4 32 24 65 45 33
22 65 43 70 48 6 4 53 37 105 73 52 36 138 95 190 130 52 36 119 83 149 104
60 42 64 41 131 -4z"/>
</g>
</svg>
